<svg xmlns="http://www.w3.org/2000/svg" width="32" height="32" viewBox="0 0 32 32" fill="none">
  <path opacity="0.15" d="M2.55 44.5C2.55 44.8978 4.44643 45.2794 7.82208 45.5607C11.1977 45.842 15.7761 46 20.55 46C25.3239 46 29.9023 45.842 33.2779 45.5607C36.6536 45.2794 38.55 44.8978 38.55 44.5C38.55 44.1022 36.6536 43.7206 33.2779 43.4393C29.9023 43.158 25.3239 43 20.55 43C15.7761 43 11.1977 43.158 7.82208 43.4393C4.44643 43.7206 2.55 44.1022 2.55 44.5Z" fill="#45413C"/>
  <path d="M8.74 28.82L8 27.05C7.84055 26.6866 7.55619 26.3923 7.19845 26.2205C6.84071 26.0487 6.43326 26.0108 6.04995 26.1136C5.66664 26.2164 5.33284 26.4531 5.10904 26.7808C4.88523 27.1085 4.78624 27.5056 4.83 27.9C5.48 32.9 4.28 34.52 1.83 37.32C1.58725 37.5881 1.44454 37.9319 1.42599 38.2931C1.40744 38.6544 1.51419 39.0109 1.72819 39.3025C1.94219 39.5941 2.25032 39.8029 2.60049 39.8936C2.95066 39.9842 3.32139 39.9511 3.65 39.8C4.73534 39.4563 5.73723 38.8904 6.59185 38.1382C7.44648 37.3861 8.13512 36.4642 8.61393 35.4313C9.09275 34.3985 9.35123 33.2772 9.37294 32.1389C9.39464 31.0007 9.17909 29.8704 8.74 28.82Z" fill="#FFE500"/>
  <path d="M5 29.6C5.13459 29.3161 5.34699 29.0762 5.61252 28.9082C5.87805 28.7402 6.1858 28.6511 6.5 28.6511C6.8142 28.6511 7.12196 28.7402 7.38748 28.9082C7.65301 29.0762 7.86541 29.3161 8 29.6L8.74 31.37C8.97531 31.9323 9.14639 32.5193 9.25 33.12C9.46312 31.6601 9.27292 30.1696 8.7 28.81L8 27.05C7.84056 26.6866 7.55619 26.3923 7.19845 26.2205C6.84071 26.0487 6.43326 26.0108 6.04996 26.1136C5.66665 26.2164 5.33284 26.4531 5.10904 26.7808C4.88523 27.1085 4.78624 27.5056 4.83 27.9C4.91 28.52 5 29.08 5 29.6ZM2.14 39.61C4.26 37.12 5.37 35.47 5 31.28C4.78 33.84 3.66 35.28 1.9 37.28C1.75784 37.444 1.65144 37.6358 1.58763 37.8432C1.52381 38.0506 1.50397 38.2691 1.52939 38.4846C1.5548 38.7001 1.6249 38.908 1.7352 39.0949C1.84551 39.2818 1.9936 39.4436 2.17 39.57L2.14 39.61Z" fill="#FFF48C"/>
  <path d="M6.08 26.08L5.35 24.35M7.07 23.63L3.64 25.07M8.74 28.82L8 27.05C7.84055 26.6866 7.55619 26.3923 7.19845 26.2205C6.84071 26.0488 6.43326 26.0108 6.04995 26.1136C5.66664 26.2164 5.33284 26.4531 5.10904 26.7808C4.88523 27.1085 4.78624 27.5056 4.83 27.9C5.48 32.9 4.28 34.52 1.83 37.32C1.58725 37.5882 1.44454 37.9319 1.42599 38.2931C1.40744 38.6544 1.51419 39.0109 1.72819 39.3025C1.94219 39.5942 2.25032 39.8029 2.60049 39.8936C2.95066 39.9842 3.32139 39.9512 3.65 39.8C4.73534 39.4563 5.73723 38.8904 6.59185 38.1382C7.44648 37.3861 8.13512 36.4642 8.61393 35.4314C9.09275 34.3985 9.35123 33.2772 9.37294 32.1389C9.39464 31.0007 9.17909 29.8704 8.74 28.82Z" stroke="#45413C" stroke-linecap="round" stroke-linejoin="round"/>
  <path d="M30.69 19.37C30.5646 19.5873 30.4832 19.8273 30.4505 20.076C30.4178 20.3248 30.4344 20.5776 30.4995 20.82C30.5645 21.0623 30.6766 21.2895 30.8294 21.4886C30.9822 21.6876 31.1727 21.8546 31.39 21.98C31.6073 22.1054 31.8472 22.1868 32.096 22.2195C32.3448 22.2522 32.5976 22.2356 32.84 22.1706C33.0823 22.1056 33.3095 21.9934 33.5086 21.8406C33.7076 21.6878 33.8746 21.4973 34 21.28C34.4563 20.4785 35.1919 19.8732 36.0664 19.5798C36.9408 19.2865 37.8927 19.3257 38.74 19.69C40.4438 20.4199 41.8296 21.7362 42.646 23.4002C43.4624 25.0643 43.6554 26.9658 43.19 28.76C42.3508 31.9941 40.462 34.8583 37.8197 36.9033C35.1775 38.9483 31.9312 40.0586 28.59 40.06H20.59L19.89 44H28.67C32.9183 43.9997 37.0445 42.5794 40.3929 39.9648C43.7413 37.3502 46.1197 33.6914 47.15 29.57C47.8004 26.9659 47.5317 24.2171 46.3893 21.7882C45.2468 19.3594 43.3007 17.3995 40.88 16.24C39.0985 15.3882 37.062 15.2373 35.1744 15.8171C33.2868 16.3969 31.6861 17.6651 30.69 19.37Z" fill="#BF8256"/>
  <path d="M43.35 27.91C43.312 28.196 43.2586 28.4798 43.19 28.76C42.3508 31.9941 40.462 34.8583 37.8197 36.9033C35.1775 38.9483 31.9312 40.0586 28.59 40.06H20.59L20.22 42.24H28.63C31.9569 42.235 35.1887 41.1299 37.8221 39.0969C40.4556 37.064 42.3428 34.2172 43.19 31C43.4481 29.9909 43.5025 28.9404 43.35 27.91ZM30.69 19.37C30.5099 19.6871 30.4227 20.0486 30.4387 20.4129C30.4546 20.7773 30.5729 21.1298 30.78 21.43C31.7917 19.7664 33.3855 18.5382 35.2519 17.9838C37.1184 17.4294 39.1242 17.5885 40.88 18.43C42.6894 19.2951 44.2444 20.6135 45.3939 22.2571C46.5433 23.9007 47.2482 25.8136 47.44 27.81C47.6578 25.4425 47.146 23.065 45.9734 20.9969C44.8007 18.9287 43.0234 17.2688 40.88 16.24C39.0985 15.3882 37.062 15.2373 35.1744 15.8171C33.2868 16.3969 31.6861 17.6651 30.69 19.37Z" fill="#DEA47A"/>
  <path d="M30.7 19.37C30.5559 19.5872 30.4578 19.8316 30.4117 20.0881C30.3656 20.3446 30.3725 20.6079 30.432 20.8616C30.4915 21.1154 30.6023 21.3543 30.7575 21.5637C30.9128 21.773 31.1093 21.9483 31.3349 22.0789C31.5604 22.2095 31.8103 22.2925 32.0692 22.3228C32.3281 22.3532 32.5904 22.3302 32.8401 22.2554C33.0897 22.1806 33.3214 22.0554 33.5209 21.8877C33.7204 21.7199 33.8834 21.5131 34 21.28C34.4563 20.4784 35.1919 19.8732 36.0664 19.5798C36.9408 19.2865 37.8927 19.3257 38.74 19.69C40.4438 20.4199 41.8296 21.7362 42.646 23.4002C43.4624 25.0643 43.6554 26.9658 43.19 28.76C42.3508 31.9941 40.462 34.8583 37.8197 36.9033C35.1775 38.9483 31.9312 40.0586 28.59 40.06H20.59L19.89 44H28.67C32.9183 43.9997 37.0445 42.5794 40.3929 39.9648C43.7413 37.3502 46.1197 33.6914 47.15 29.57C47.8004 26.9659 47.5317 24.2171 46.3893 21.7882C45.2468 19.3594 43.3007 17.3995 40.88 16.24C39.1 15.3888 37.065 15.2381 35.1791 15.818C33.2931 16.3978 31.6943 17.6658 30.7 19.37Z" stroke="#45413C" stroke-linecap="round" stroke-linejoin="round"/>
  <path d="M31.16 30.6C30.3936 26.6087 28.2619 23.0086 25.1307 20.4175C21.9996 17.8265 18.0642 16.406 14 16.4V28.4L9.71 27.64C9.41722 27.5424 9.1068 27.5094 8.80004 27.543C8.49328 27.5767 8.19743 27.6763 7.93278 27.835C7.66813 27.9938 7.44094 28.2079 7.2668 28.4626C7.09265 28.7174 6.97567 29.0068 6.92387 29.3111C6.87207 29.6153 6.88668 29.9271 6.9667 30.2252C7.04673 30.5232 7.19026 30.8004 7.38747 31.0378C7.58468 31.2752 7.83089 31.4671 8.10923 31.6004C8.38756 31.7336 8.69143 31.8052 9 31.81L14 32.58V35C13.4804 35.5238 13.0753 36.1498 12.8102 36.8384C12.5451 37.5269 12.4259 38.263 12.46 39L12.52 40H11.73C11.3247 39.9913 10.9226 40.0733 10.5531 40.24C10.1835 40.4067 9.85594 40.6539 9.59425 40.9636C9.33256 41.2732 9.14339 41.6374 9.04057 42.0295C8.93776 42.4216 8.92389 42.8318 9 43.23C9.05278 43.4537 9.18104 43.6524 9.36318 43.7927C9.54531 43.9329 9.7702 44.0061 10 44H24.14C25.1349 44.0013 26.1204 43.8065 27.04 43.4266C27.9596 43.0468 28.7953 42.4894 29.4993 41.7863C30.2033 41.0833 30.7618 40.2483 31.1428 39.3292C31.5239 38.4101 31.72 37.4249 31.72 36.43C31.7189 34.4733 31.5314 32.5211 31.16 30.6Z" fill="#BF8256"/>
  <path d="M14 26.26C16.1527 26.2596 18.2605 25.6437 20.0748 24.485C21.8891 23.3262 23.3343 21.6729 24.24 19.72C21.2612 17.5631 17.6777 16.4012 14 16.4V26.26Z" fill="#915E3A"/>
  <path d="M31.16 30.6C30.3936 26.6087 28.2619 23.0086 25.1307 20.4175C21.9996 17.8265 18.0642 16.406 14 16.4V28.4L9.71 27.64C9.41722 27.5424 9.1068 27.5094 8.80004 27.543C8.49328 27.5767 8.19743 27.6763 7.93278 27.835C7.66813 27.9938 7.44094 28.2079 7.2668 28.4626C7.09265 28.7174 6.97567 29.0068 6.92387 29.3111C6.87207 29.6153 6.88668 29.9271 6.9667 30.2252C7.04673 30.5232 7.19026 30.8004 7.38747 31.0378C7.58468 31.2752 7.83089 31.4671 8.10923 31.6004C8.38756 31.7336 8.69143 31.8052 9 31.81L14 32.58V35C13.4804 35.5238 13.0753 36.1498 12.8102 36.8384C12.5451 37.5269 12.4259 38.263 12.46 39L12.52 40H11.73C11.3247 39.9913 10.9226 40.0733 10.5531 40.24C10.1835 40.4067 9.85594 40.6539 9.59425 40.9636C9.33256 41.2732 9.14339 41.6374 9.04057 42.0295C8.93776 42.4216 8.92389 42.8318 9 43.23C9.05278 43.4537 9.18104 43.6524 9.36318 43.7927C9.54531 43.9329 9.7702 44.0061 10 44H24.14C25.1349 44.0013 26.1204 43.8065 27.04 43.4266C27.9596 43.0468 28.7953 42.4894 29.4993 41.7863C30.2033 41.0833 30.7618 40.2483 31.1428 39.3292C31.5239 38.4101 31.72 37.4249 31.72 36.43C31.7189 34.4733 31.5314 32.5211 31.16 30.6Z" stroke="#45413C" stroke-linecap="round" stroke-linejoin="round"/>
  <path d="M22.52 9.17H22.28C21.845 7.29201 20.7867 5.61673 19.2777 4.41724C17.7686 3.21775 15.8977 2.56479 13.97 2.56479C12.0423 2.56479 10.1714 3.21775 8.66234 4.41724C7.15327 5.61673 6.09499 7.29201 5.66 9.17C5.58343 9.16449 5.50657 9.16449 5.43 9.17C4.99842 9.17 4.57109 9.25517 4.17249 9.42063C3.77388 9.58609 3.41186 9.82859 3.10715 10.1342C2.80244 10.4399 2.56105 10.8026 2.3968 11.2017C2.23255 11.6008 2.14869 12.0284 2.15 12.46V13.12C2.15 13.5507 2.23484 13.9773 2.39968 14.3752C2.56451 14.7732 2.80611 15.1347 3.11069 15.4393C3.41527 15.7439 3.77685 15.9855 4.1748 16.1503C4.57275 16.3152 4.99927 16.4 5.43 16.4H5.66C6.09499 18.278 7.15327 19.9533 8.66234 21.1528C10.1714 22.3523 12.0423 23.0052 13.97 23.0052C15.8977 23.0052 17.7686 22.3523 19.2777 21.1528C20.7867 19.9533 21.845 18.278 22.28 16.4H22.52C23.3899 16.4 24.2242 16.0544 24.8393 15.4393C25.4544 14.8242 25.8 13.9899 25.8 13.12V12.46C25.8013 12.0284 25.7174 11.6008 25.5532 11.2017C25.389 10.8026 25.1476 10.4399 24.8429 10.1342C24.5381 9.82859 24.1761 9.58609 23.7775 9.42063C23.3789 9.25517 22.9516 9.17 22.52 9.17Z" fill="#BF8256"/>
  <path d="M22.52 9.16999C22.4434 9.16447 22.3666 9.16447 22.29 9.16999C21.8507 7.29436 20.7902 5.62233 19.2807 4.42552C17.7712 3.2287 15.9014 2.57739 13.975 2.57739C12.0486 2.57739 10.1788 3.2287 8.66931 4.42552C7.1598 5.62233 6.09928 7.29436 5.66 9.16999C5.58343 9.16447 5.50657 9.16447 5.43 9.16999C4.99842 9.16999 4.57109 9.25516 4.17249 9.42062C3.77388 9.58608 3.41186 9.82858 3.10715 10.1342C2.80244 10.4398 2.56105 10.8026 2.3968 11.2017C2.23255 11.6008 2.14869 12.0284 2.15 12.46V13.12C2.1562 13.46 2.2135 13.7971 2.32 14.12C2.5312 13.4602 2.94586 12.8843 3.50455 12.4747C4.06324 12.0651 4.73726 11.8429 5.43 11.84C5.50657 11.8345 5.58343 11.8345 5.66 11.84C6.09928 9.96436 7.1598 8.29233 8.66931 7.09552C10.1788 5.8987 12.0486 5.24739 13.975 5.24739C15.9014 5.24739 17.7712 5.8987 19.2807 7.09552C20.7902 8.29233 21.8507 9.96436 22.29 11.84C22.3666 11.8345 22.4434 11.8345 22.52 11.84C23.2127 11.8429 23.8868 12.0651 24.4455 12.4747C25.0041 12.8843 25.4188 13.4602 25.63 14.12C25.7365 13.7971 25.7938 13.46 25.8 13.12V12.46C25.8013 12.0284 25.7174 11.6008 25.5532 11.2017C25.389 10.8026 25.1476 10.4398 24.8429 10.1342C24.5381 9.82858 24.1761 9.58608 23.7775 9.42062C23.3789 9.25516 22.9516 9.16999 22.52 9.16999Z" fill="#DEA47A"/>
  <path d="M22.52 9.17H22.28C21.845 7.29201 20.7867 5.61673 19.2777 4.41724C17.7686 3.21775 15.8977 2.56479 13.97 2.56479C12.0423 2.56479 10.1714 3.21775 8.66234 4.41724C7.15327 5.61673 6.09499 7.29201 5.66 9.17C5.58343 9.16449 5.50657 9.16449 5.43 9.17C4.99842 9.17 4.57109 9.25517 4.17249 9.42063C3.77388 9.58609 3.41186 9.82859 3.10715 10.1342C2.80244 10.4399 2.56105 10.8026 2.3968 11.2017C2.23255 11.6008 2.14869 12.0284 2.15 12.46V13.12C2.15 13.5507 2.23484 13.9773 2.39968 14.3752C2.56451 14.7732 2.80611 15.1347 3.11069 15.4393C3.41527 15.7439 3.77685 15.9855 4.1748 16.1503C4.57275 16.3152 4.99927 16.4 5.43 16.4H5.66C6.09499 18.278 7.15327 19.9533 8.66234 21.1528C10.1714 22.3523 12.0423 23.0052 13.97 23.0052C15.8977 23.0052 17.7686 22.3523 19.2777 21.1528C20.7867 19.9533 21.845 18.278 22.28 16.4H22.52C23.3899 16.4 24.2242 16.0544 24.8393 15.4393C25.4544 14.8242 25.8 13.9899 25.8 13.12V12.46C25.8013 12.0284 25.7174 11.6008 25.5532 11.2017C25.389 10.8026 25.1476 10.4399 24.8429 10.1342C24.5381 9.82859 24.1761 9.58609 23.7775 9.42063C23.3789 9.25517 22.9516 9.17 22.52 9.17Z" stroke="#45413C" stroke-linecap="round" stroke-linejoin="round"/>
  <path d="M18.56 15.07C19.1011 15.5867 19.5323 16.2073 19.8278 16.8946C20.1234 17.5819 20.2772 18.3218 20.28 19.07C20.2763 19.5224 20.2158 19.9726 20.1 20.41C19.2481 21.2903 18.2166 21.9768 17.0756 22.4228C15.9347 22.8687 14.711 23.0637 13.488 22.9945C12.2649 22.9252 11.0711 22.5933 9.98779 22.0214C8.90448 21.4494 7.95706 20.6509 7.21 19.68C7.17131 19.4821 7.1479 19.2815 7.14 19.08C7.14469 18.3312 7.30031 17.5911 7.59755 16.9038C7.8948 16.2165 8.32757 15.5962 8.87 15.08C8.1751 14.6046 7.65029 13.9195 7.37214 13.1248C7.09399 12.3301 7.07705 11.4674 7.3238 10.6624C7.57055 9.85735 8.06807 9.15225 8.74378 8.64993C9.41949 8.1476 10.238 7.87434 11.08 7.87C12.0504 7.86542 12.9878 8.22185 13.71 8.87C14.1099 8.50215 14.5816 8.221 15.0954 8.04421C15.6092 7.86742 16.154 7.79882 16.6956 7.84271C17.2372 7.88661 17.7638 8.04205 18.2425 8.29927C18.7211 8.5565 19.1413 8.90994 19.4768 9.33739C19.8123 9.76484 20.0557 10.2571 20.1917 10.7831C20.3278 11.3092 20.3536 11.8577 20.2675 12.3942C20.1814 12.9307 19.9853 13.4436 19.6914 13.9006C19.3976 14.3577 19.0124 14.749 18.56 15.05V15.07Z" fill="#FFDCD1" stroke="#45413C" stroke-linecap="round" stroke-linejoin="round"/>
  <path d="M18.56 11.88C18.5457 12.1389 18.4548 12.3878 18.299 12.5951C18.1431 12.8023 17.9292 12.9587 17.6844 13.0443C17.4396 13.1299 17.1749 13.1409 16.9238 13.0759C16.6728 13.0109 16.4466 12.8729 16.2741 12.6793C16.1015 12.4857 15.9903 12.2453 15.9545 11.9884C15.9187 11.7315 15.96 11.4699 16.0731 11.2365C16.1862 11.0031 16.366 10.8085 16.5897 10.6774C16.8135 10.5463 17.0711 10.4846 17.33 10.5C17.5017 10.5089 17.6699 10.5518 17.8249 10.6262C17.9799 10.7006 18.1186 10.8049 18.233 10.9333C18.3474 11.0616 18.4352 11.2114 18.4914 11.3739C18.5475 11.5364 18.5708 11.7084 18.56 11.88ZM12 11.88C11.9858 12.1386 11.8953 12.3871 11.74 12.5942C11.5846 12.8014 11.3713 12.9578 11.1271 13.0439C10.8829 13.1299 10.6186 13.1416 10.3678 13.0775C10.1169 13.0134 9.89061 12.8764 9.71755 12.6838C9.54449 12.4912 9.43238 12.2516 9.3954 11.9953C9.35841 11.7391 9.39821 11.4776 9.50976 11.2439C9.6213 11.0102 9.7996 10.8148 10.0221 10.6824C10.2446 10.55 10.5014 10.4866 10.76 10.5C10.9321 10.509 11.1008 10.5518 11.2563 10.626C11.4118 10.7003 11.5512 10.8045 11.6664 10.9327C11.7816 11.0609 11.8703 11.2105 11.9276 11.3731C11.9848 11.5357 12.0094 11.7079 12 11.88Z" fill="#45413C"/>
  <path d="M11.35 18.37C11.6786 18.7588 12.0832 19.0764 12.5388 19.3034C12.9945 19.5303 13.4917 19.6619 14 19.69C14.5045 19.6575 14.9973 19.524 15.4491 19.2972C15.9009 19.0704 16.3025 18.7551 16.63 18.37M13.97 28.35L17.49 28.97M21.43 25L23 29.4C23.177 29.8982 23.2218 30.4338 23.1302 30.9545C23.0386 31.4752 22.8136 31.9632 22.4773 32.3711C22.1409 32.779 21.7046 33.0928 21.2108 33.2819C20.7171 33.4709 20.1828 33.5289 19.66 33.45L14 32.58M22.92 39.26C22.9673 38.4968 22.8531 37.7322 22.585 37.0161C22.3168 36.3 21.9007 35.6485 21.3638 35.104C20.8269 34.5596 20.1813 34.1344 19.469 33.8563C18.7567 33.5782 17.9938 33.4534 17.23 33.49C16.0012 33.5669 14.8471 34.1065 14 35" stroke="#45413C" stroke-linecap="round" stroke-linejoin="round"/>
</svg>
